<?xml version="1.0" encoding="iso-8859-1"?>
<!-- Generator: Adobe Illustrator 19.0.0, SVG Export Plug-In . SVG Version: 6.00 Build 0)  -->
<svg version="1.1" id="Capa_1" xmlns="http://www.w3.org/2000/svg" xmlns:xlink="http://www.w3.org/1999/xlink" x="0px" y="0px"
	 viewBox="0 0 512.003 512.003" style="enable-background:new 0 0 512.003 512.003;" xml:space="preserve">
<path style="fill:#FF7C3B;" d="M140.144,152.064c-3.216,0-6.453-0.351-9.624-1.045c-12.86-2.815-23.652-10.97-29.91-22.748
	c-4.33-8.148-6.001-17.525-4.757-26.668c1.801-13.242,9.123-24.658,20.236-31.767l24.255-15.517l19.947,31.179l-25.225,16.137
	c-2.615,1.673-4.681,4.144-5.634,7.099c-1.218,3.776-0.696,7.76,1.405,11.046c2.398,3.747,6.505,5.984,10.988,5.984
	c2.479,0,4.897-0.709,6.993-2.05l11.936-7.637l2.548-9.522c1.181-4.411,7.04-5.32,9.501-1.473l8.065,12.607l6.193,2.615
	c3.856,1.628,4.352,6.892,0.869,9.213l-11.074,7.374L164.177,145C156.952,149.622,148.641,152.064,140.144,152.064z"/>
<path style="fill:#F46C21;" d="M139.501,54.858l33.3-21.303c5.171-3.309,11.612,1.771,9.6,7.571l-7.352,21.193L177,63.35
	c4.382,2.317,4.64,8.499,0.463,11.171l-18.011,11.523L139.501,54.858z"/>
<path style="fill:#F46527;" d="M113.369,141.03c-4.33-8.148-6.001-17.525-4.757-26.668c1.801-13.242,9.123-24.658,20.235-31.767
	l20.994-13.431l-9.497-14.846l-24.255,15.517c-11.113,7.11-18.434,18.525-20.235,31.767c-1.244,9.144,0.427,18.52,4.757,26.668
	c3.629,6.828,8.788,12.429,14.984,16.487C114.804,143.557,114.054,142.32,113.369,141.03z"/>
<path style="fill:#ED590F;" d="M164.715,59.649l14.471-9.258l3.215-9.265c2.012-5.8-4.428-10.88-9.6-7.571l-33.3,21.304
	l19.951,31.186l3.262-2.087l-2.485-3.885C155.827,73.192,157.836,64.049,164.715,59.649z"/>
<path style="fill:#B2D84A;" d="M252.309,57.58c-4.481,0-8.806-1.357-12.512-3.925c-9.978-6.914-12.47-20.659-5.555-30.637
	c4.669-6.736,20.242-11.697,29.109-14.056l3.646-0.97c2.857-0.76,5.714,1.221,6.007,4.162l0.372,3.755
	c0.905,9.131,1.727,25.454-2.941,32.191c-3.351,4.835-8.382,8.073-14.168,9.123C254.961,57.46,253.629,57.58,252.309,57.58z"/>
<g>
	<path style="fill:#92B515;" d="M400.107,125.795c-5.681-6.541-6.943-28.088,1.634-56.615c8.578-28.527,21.515-45.804,29.862-48.127
		l1.288-0.358c2.191-0.609,4.537,0.096,6.028,1.813l0.876,1.009c5.681,6.541,6.943,28.088-1.634,56.615
		c-8.578,28.527-21.515,45.804-29.862,48.127l-1.288,0.358c-2.191,0.609-4.537-0.096-6.028-1.813L400.107,125.795z"/>
	<path style="fill:#92B515;" d="M388.939,189.185c-0.216,0-0.423-0.007-0.618-0.019l-0.102-0.006
		c-2.709-0.195-5.18-1.432-6.956-3.484l-20.105-23.202c-1.778-2.053-2.65-4.675-2.457-7.384c0.193-2.711,1.431-5.184,3.484-6.962
		l5.051-4.376c1.846-1.601,4.208-2.483,6.65-2.483c0.244,0,0.479,0.009,0.699,0.024c2.747,0.197,5.218,1.435,6.995,3.487
		l20.105,23.202c3.671,4.238,3.212,10.672-1.023,14.344l-5.055,4.378C393.758,188.303,391.39,189.185,388.939,189.185
		L388.939,189.185z"/>
</g>
<path style="fill:#C69C6D;" d="M307.79,152.956l-1.611-0.688l-23.956-10.413c-2.296-1.018-3.965-2.94-4.633-5.3
	c-0.674-2.31-0.271-4.839,1.122-6.877l8.782-12.92c0.589-0.867,0.519-2.077-0.164-2.878c-7.235-8.482-9.439-18.413-5.896-26.565
	c2.817-6.482,8.87-11.087,17.043-12.964c2.562-0.588,5.285-0.887,8.096-0.887c5.956,0,12.163,1.33,17.95,3.845
	c8.553,3.717,15.817,9.924,19.93,17.027c4.201,7.256,4.964,14.823,2.147,21.306c-3.448,7.933-11.936,13.081-22.706,13.772
	c-1.488,0.096-2.814,1.247-3.151,2.736l-3.264,14.381c-0.536,2.398-2.09,4.401-4.278,5.52c-1.159,0.592-2.451,0.906-3.743,0.906
	L307.79,152.956z"/>
<path style="fill:#B5241A;" d="M120.974,264.845c-7.536-15.222-19.911-29.912-32.296-38.334c-5.532-3.763-8.215-10.593-6.391-17.606
	c0.18-0.692,0.419-1.368,0.717-2.019c2.795-6.126,8.596-9.694,14.803-9.694c2.476,0,4.968,0.584,7.209,1.689
	c5.258,2.594,10.11,5.665,14.42,9.13c10.871,8.736,18.212,24.205,18.704,39.408c0.193,5.962-0.635,11.545-2.461,16.595l-2.479,6.855
	c-1.466,4.054-7.078,4.37-8.99,0.506L120.974,264.845z"/>
<path style="fill:#A5100C;" d="M133.679,255.974c-7.536-15.222-19.911-29.912-32.296-38.334c-5.532-3.763-8.215-10.593-6.391-17.606
	c0.18-0.692,0.419-1.368,0.717-2.019c0.112-0.246,0.237-0.48,0.358-0.718c-5.532,0.601-10.532,4.041-13.063,9.59
	c-0.296,0.65-0.536,1.327-0.717,2.019c-1.824,7.013,0.86,13.843,6.391,17.606c12.385,8.423,24.761,23.111,32.296,38.334l3.234,6.533
	c1.913,3.863,7.524,3.547,8.99-0.506l2.48-6.855c0.288-0.796,0.541-1.608,0.78-2.43L133.679,255.974z"/>
<path style="fill:#92B515;" d="M190.883,253.697c-0.496-0.027-0.99-0.119-1.458-0.285c-16.587-5.878-27.679-21.514-27.679-39.146
	s11.092-33.269,27.68-39.147c0.467-0.166,0.96-0.258,1.455-0.285l38.418-2.102l0.333,83.066L190.883,253.697z"/>
<path style="fill:#B2D84A;" d="M229.3,255.798c-22.901,0-41.533-18.632-41.533-41.533s18.632-41.533,41.533-41.533
	s41.533,18.632,41.533,41.533S252.201,255.798,229.3,255.798z"/>
<path id="SVGCleanerId_0" style="fill:#FF7C3B;" d="M357.378,310.842l-0.868-7.026c-0.544-4.407-2.826-8.308-6.426-10.983
	l-29.933-22.247l27.157-36.539l28.477,21.165c15.239,11.326,23.514,29.347,22.133,48.205l-0.542,7.423h-40V310.842z"/>
<g>
	<path id="SVGCleanerId_0_1_" style="fill:#FF7C3B;" d="M357.378,310.842l-0.868-7.026c-0.544-4.407-2.826-8.308-6.426-10.983
		l-29.933-22.247l27.157-36.539l28.477,21.165c15.239,11.326,23.514,29.347,22.133,48.205l-0.542,7.423h-40V310.842z"/>
</g>
<path style="fill:#F46C21;" d="M300.539,256.024c-2.752-2.051-4.024-5.384-3.327-8.707c0.677-3.252,3.123-5.756,6.383-6.517
	l0.31-0.071l-6.742-24.96c-0.975-3.63,0.336-7.175,3.416-9.265c1.427-0.979,3.11-1.508,4.838-1.508c1.855,0,3.587,0.586,5.149,1.744
	l37.547,27.906l-27.162,36.549L300.539,256.024z"/>
<path style="fill:#F46527;" d="M362.229,271.397l-27.493-20.433l-14.586,19.625l29.933,22.247c3.6,2.675,5.882,6.575,6.426,10.983
	l0.868,7.026h26.906C382.956,295.276,375.083,280.952,362.229,271.397z"/>
<path style="fill:#ED590F;" d="M334.553,250.829l-34.935-25.964l4.285,15.865l-0.31,0.071c-3.26,0.762-5.707,3.266-6.383,6.517
	c-0.698,3.323,0.574,6.656,3.327,8.707l19.423,14.437L334.553,250.829z"/>
<path style="fill:#A6C1AD;" d="M191.77,449.951v38.75v5.568c0,5.915,4.812,10.726,10.726,10.726h131.668
	c5.915,0,10.726-4.812,10.726-10.726V488.7v-38.75H191.77z"/>
<path style="fill:#78A883;" d="M262.943,494.27v-5.568v-38.75H191.77v38.75v5.568c0,5.915,4.812,10.726,10.726,10.726h71.172
	C267.755,504.995,262.943,500.183,262.943,494.27z"/>
<path style="fill:#C2D5BF;" d="M227.513,478.975c-59.441,0-107.799-48.358-107.799-107.799v-49.092
	c0-6.75,5.492-12.243,12.243-12.243h274.751c6.75,0,12.243,5.492,12.243,12.243v49.092c0,59.441-48.358,107.799-107.799,107.799
	H227.513z"/>
<path style="fill:#9CC495;" d="M190.887,371.175v-49.092c0-6.75,5.492-12.243,12.243-12.243h-71.172
	c-6.75,0-12.243,5.492-12.243,12.243v49.092c0,59.441,48.358,107.799,107.799,107.799h71.172
	C239.245,478.975,190.887,430.616,190.887,371.175z"/>
<path d="M406.708,302.836h-1.738c1.163-20.721-8.017-40.619-25.006-53.244l-28.059-20.854c0,0-0.001-0.001-0.002-0.001l-8.014-5.957
	l1.194-1.606c1.484-1.997,4.305-2.412,6.302-0.928l12.431,9.24c3.402,2.528,7.439,3.856,11.6,3.856c0.958,0,1.922-0.07,2.885-0.212
	c4.941-0.728,9.327-3.257,12.421-7.147c2.588-3.255,2.392-8.072-0.796-10.742c-3.337-2.795-8.289-2.179-10.85,1.264
	c-0.692,0.93-1.74,1.574-2.884,1.762c-1.22,0.2-2.435-0.096-3.421-0.829l-12.433-9.24c-8.651-6.43-20.875-4.629-27.305,4.022
	l-1.194,1.606l-17.083-12.697c-5.439-4.043-12.556-4.203-18.13-0.407c-5.534,3.768-7.979,10.392-6.227,16.876l5.263,19.483
	c-2.67,2.184-4.564,5.247-5.309,8.81c-1.261,6.029,1.041,12.067,6.008,15.757l19.076,14.178c0.142,0.106,0.296,0.183,0.444,0.277
	c0.159,0.14,0.321,0.279,0.494,0.407l29.53,21.948c1.525,1.133,2.609,2.668,3.204,4.378H237.546c-4.082,0-7.344,3.329-7.342,7.411
	c0,0.064,0,0.127,0,0.191c-0.013,4.081,3.26,7.41,7.341,7.41h169.163c2.34,0,4.235,1.897,4.235,4.235v49.093
	c0,55.113-44.678,99.793-99.793,99.793h-83.638c-52.428,0-95.542-40.64-99.497-92.073h57.935c4.11,0,7.694-3.167,7.817-7.275
	c0.128-4.25-3.281-7.737-7.503-7.737h-58.546v-15.494h95.762c4.11,0,7.694-3.167,7.817-7.275c0.128-4.25-3.281-7.737-7.503-7.737
	h-96.076v-11.294c0-2.34,1.896-4.236,4.236-4.236h58.947c4.183,0,7.57-3.462,7.407-7.643c-0.002-0.064-0.005-0.127-0.007-0.191
	c-0.142-4-3.403-7.179-7.405-7.179h-58.941c-10.63,0-19.248,8.618-19.248,19.248v49.092c0,0.057,0.002,0.114,0.002,0.171
	c0,0.014-0.002,0.028-0.002,0.043c0,0.024,0.003,0.048,0.004,0.072c0.121,49.207,31.358,91.236,75.035,107.415
	c-1.88,2.814-2.982,6.193-2.982,9.824v5.568c0,9.793,7.939,17.732,17.732,17.732h131.668c9.793,0,17.732-7.939,17.732-17.732v-5.568
	c0-3.386-0.971-6.541-2.624-9.235c44.62-15.754,76.682-58.345,76.682-108.289v-49.093
	C425.955,311.453,417.337,302.836,406.708,302.836z M305.315,249.599c-0.138-0.103-0.347-0.258-0.268-0.635
	c0.062-0.296,0.206-0.329,0.371-0.368l0.791-0.182c1.987-0.458,3.702-1.705,4.751-3.454c1.05-1.749,1.341-3.849,0.81-5.818
	l-6.878-25.461c-0.063-0.233-0.098-0.361,0.184-0.552c0.347-0.238,0.54-0.091,0.728,0.047l31.108,23.12l-17.611,23.696
	L305.315,249.599z M389.935,302.836h-25.479c-0.798-6.457-4.172-12.396-9.597-16.428l-23.506-17.471l17.605-23.687l16.08,11.95
	l-2.388,3.213c-2.473,3.327-1.779,8.028,1.547,10.501c1.345,1,2.914,1.482,4.471,1.482c2.293,0,4.558-1.047,6.03-3.029l2.017-2.713
	c4.417,4.527,7.828,9.814,10.09,15.56l-3.92,0.919c-4.036,0.947-6.54,4.985-5.594,9.021c0.812,3.461,3.895,5.795,7.301,5.795
	c0.567,0,1.145-0.064,1.72-0.199l3.685-0.864C390.099,298.854,390.08,300.841,389.935,302.836z M336.885,494.27
	c0,1.5-1.22,2.72-2.72,2.72H202.497c-1.5,0-2.72-1.22-2.72-2.72v-5.568c0-1.5,1.22-2.72,2.72-2.72h131.668
	c1.5,0,2.72,1.22,2.72,2.72L336.885,494.27L336.885,494.27z"/>
<path d="M97.298,136.316c0.024,0.039,0.043,0.08,0.068,0.119c0.046,0.072,0.102,0.134,0.15,0.204
	c7.445,10.874,18.566,18.391,31.506,21.224c3.71,0.812,7.444,1.213,11.153,1.213c9.766,0,19.349-2.783,27.777-8.174l12.738-8.148
	c0.039-0.025,0.077-0.05,0.116-0.075l9.573-6.375c4.046-2.694,6.276-7.375,5.82-12.215c-0.456-4.84-3.522-9.02-8-10.911l0,0
	l-2.6-1.098l-5.759-9.002c-2.858-4.468-7.889-6.734-13.129-5.925c-5.24,0.813-9.347,4.5-10.717,9.623l-1.301,4.864l-9.647,6.172
	c-2.795,1.79-6.521,0.977-8.304-1.809c-0.863-1.348-1.147-2.952-0.802-4.518c0.346-1.569,1.283-2.912,2.639-3.779l25.068-16.037
	c0.137-0.088,0.266-0.186,0.397-0.282c0.132-0.074,0.269-0.133,0.399-0.216l16.193-10.36c4.693-3.002,7.14-8.281,6.387-13.777
	c-0.401-2.924-1.661-5.543-3.557-7.591l5.056-14.575c1.984-5.719,0.203-11.828-4.537-15.566c-4.77-3.762-11.173-4.068-16.314-0.779
	l-13.292,8.504l-0.099-0.155c-5.117-7.997-15.786-10.341-23.785-5.225l-10.553,6.752c-1.026,0.656-2.393,0.355-3.049-0.67
	c-2.235-3.492-6.876-4.511-10.368-2.278c-3.492,2.234-4.512,6.876-2.278,10.368c5.117,7.997,15.787,10.342,23.785,5.225
	l10.553-6.752c0.635-0.407,1.255-0.386,1.663-0.296c0.407,0.089,0.979,0.33,1.386,0.966l0.099,0.155l-5.595,3.58
	c-0.001,0.001-0.003,0.002-0.004,0.003l-23.817,15.236c-10.52,6.73-18.089,16.805-21.638,28.639
	c-0.021,0.061-0.047,0.118-0.066,0.18c-0.029,0.093-0.046,0.186-0.071,0.279c-0.318,1.097-0.614,2.203-0.863,3.329
	c-2.971,13.476-0.514,27.295,6.917,38.912C96.821,135.627,97.063,135.968,97.298,136.316z M173.385,42.685L167.343,60.1
	c-0.668,1.927-0.523,4.042,0.399,5.86c0.708,1.392,1.824,2.518,3.185,3.237l-9.047,5.789l-11.32-17.698l5.58-3.57
	c0.001,0,0.001,0,0.002-0.001c0.001,0,0.001-0.001,0.002-0.001L173.385,42.685z M137.915,65.377l11.317,17.69l-18.745,11.991
	c-4.731,3.025-8.001,7.711-9.21,13.192c-1.209,5.485-0.209,11.111,2.816,15.84c6.244,9.758,19.271,12.614,29.039,6.365l12.101-7.741
	c1.578-1.01,2.721-2.573,3.206-4.382l0.984-3.678l4.785,7.479c0.819,1.279,2.006,2.28,3.405,2.87l1.621,0.685l-6.692,4.457
	l-12.679,8.11c-8.255,5.28-18.067,7.035-27.629,4.942c-6.586-1.441-12.51-4.591-17.281-9.102l1.979-1.266
	c3.492-2.234,4.512-6.876,2.278-10.368s-6.875-4.512-10.368-2.278l-2.46,1.573c-2.306-5.405-3.264-11.251-2.792-17.128l1.23,0.381
	c0.74,0.229,1.487,0.337,2.223,0.337c3.204,0,6.171-2.067,7.168-5.287c1.226-3.96-0.99-8.164-4.95-9.39l-1.466-0.454
	c1.75-3.291,3.99-6.29,6.665-8.906l0.55,0.861c1.433,2.24,3.855,3.462,6.33,3.462c1.384,0,2.785-0.382,4.038-1.184
	c3.492-2.234,4.512-6.875,2.278-10.367l-0.972-1.519L137.915,65.377z"/>
<path d="M275.011,84.52c-4.232,9.737-2.423,21.149,4.783,31.104l-6.887,10.133c-2.557,3.763-3.298,8.427-2.032,12.796
	s4.384,7.915,8.556,9.729l23.957,10.414c1.946,0.846,4.012,1.267,6.073,1.267c2.358,0,4.712-0.551,6.877-1.647
	c4.058-2.055,6.962-5.778,7.97-10.215l2.711-11.948c12.183-1.528,21.792-8.025,26.005-17.716c3.728-8.574,2.837-18.38-2.508-27.61
	c-4.919-8.495-13.157-15.576-23.199-19.942c-10.041-4.364-20.84-5.559-30.407-3.361C286.515,69.91,278.737,75.947,275.011,84.52z
	 M285.323,134.196l8.793-12.937c2.619-3.852,2.334-9.023-0.694-12.574c-5.204-6.102-6.94-12.897-4.645-18.179
	c1.778-4.092,5.861-7.059,11.493-8.353c1.994-0.458,4.114-0.684,6.304-0.684c4.806,0,9.938,1.086,14.758,3.182
	c7.018,3.049,12.919,8.042,16.194,13.697c2.896,5.002,3.511,10.009,1.731,14.102l0,0c-2.228,5.124-8.161,8.479-15.875,8.973
	c-5.028,0.322-9.324,4.005-10.447,8.955l-3.268,14.399c-0.01,0.046-0.021,0.099-0.112,0.145c-0.09,0.047-0.138,0.025-0.183,0.005
	l-23.958-10.414c-0.043-0.019-0.093-0.041-0.12-0.137C285.266,134.279,285.296,134.234,285.323,134.196z"/>
<path d="M302.28,105.468c0.975,0.423,1.99,0.624,2.988,0.624c2.898,0,5.657-1.688,6.887-4.515l2.494-5.736
	c1.652-3.801-0.089-8.223-3.891-9.877c-3.803-1.653-8.224,0.088-9.876,3.89l-2.494,5.736
	C296.736,99.393,298.478,103.816,302.28,105.468z"/>
<path d="M317.578,112.118c0.975,0.423,1.989,0.624,2.987,0.624c2.898,0,5.658-1.688,6.888-4.516l2.493-5.737
	c1.651-3.802-0.091-8.223-3.893-9.876c-3.803-1.653-8.222,0.09-9.876,3.892l-2.493,5.736
	C312.033,106.045,313.776,110.467,317.578,112.118z"/>
<path d="M124.445,284.444c0.661,0.183,1.334,0.272,2.003,0.272c1.853,0,3.669-0.688,5.071-1.972
	c9.252-8.476,14.09-21.101,13.623-35.549c-0.563-17.423-8.732-34.528-21.318-44.643c-4.708-3.784-9.993-7.132-15.709-9.952
	c-8.146-4.018-17.635-2.977-24.625,2.576l-11.075-6.915c-3.516-2.196-8.147-1.125-10.342,2.392
	c-2.196,3.516-1.125,8.146,2.392,10.342l10.913,6.814c-0.562,2.313-0.779,4.727-0.601,7.177c0.509,7.047,4.141,13.359,9.965,17.319
	c14.912,10.141,29.428,29.927,34.515,47.045C119.99,281.828,121.951,283.754,124.445,284.444z M93.18,219.89
	c-2.006-1.364-3.257-3.547-3.434-5.988c-0.18-2.495,0.773-4.893,2.614-6.58c1.525-1.397,3.466-2.123,5.444-2.123
	c1.238,0,2.491,0.283,3.667,0.864c4.736,2.336,9.091,5.092,12.948,8.19c9.128,7.336,15.298,20.457,15.717,33.426
	c0.161,4.966-0.525,9.569-1.989,13.613C120.14,245.115,106.999,229.289,93.18,219.89z"/>
<path d="M401.793,135.034c1.347,0.405,2.69,0.598,4.032,0.598c15.739,0,30.985-26.69,39.044-53.484
	c4.498-14.96,6.781-29.718,6.431-41.557c-0.553-18.637-7.48-24.596-13.193-26.314c-17.133-5.154-34.33,23.806-43.076,52.886
	c-4.498,14.96-6.781,29.718-6.431,41.557C389.154,127.356,396.08,133.317,401.793,135.034z M433.749,28.766
	c2.643,3.043,5.279,20.673-3.257,49.06c-4.129,13.733-9.05,23.914-13.472,30.898l8.917-29.654c1.193-3.97-1.058-8.155-5.027-9.349
	c-3.965-1.195-8.154,1.056-9.349,5.026l-7.781,25.879c0.519-7.745,2.141-17.544,5.627-29.14
	C417.944,43.099,429.867,29.846,433.749,28.766z"/>
<path d="M154.741,214.266c0,26.764,21.774,48.538,48.538,48.538H229.3c26.764,0,48.538-21.774,48.538-48.538
	s-21.774-48.538-48.538-48.538H203.28C176.515,165.727,154.741,187.502,154.741,214.266z M201.291,195.871l17.395,17.395
	l-18.168,18.168c-3.008-5.025-4.744-10.897-4.744-17.168C195.774,207.476,197.808,201.156,201.291,195.871z M210.905,242.275
	l18.396-18.396l18.396,18.396c-5.285,3.483-11.606,5.517-18.396,5.517S216.191,245.759,210.905,242.275z M257.309,195.871
	c3.483,5.285,5.517,11.605,5.517,18.396c0,6.271-1.734,12.143-4.744,17.168l-18.168-18.168L257.309,195.871z M246.468,185.483
	L229.3,202.651l-17.168-17.168c5.025-3.008,10.897-4.744,17.168-4.744S241.443,182.475,246.468,185.483z M192.674,182.469
	c-7.411,8.525-11.912,19.641-11.912,31.797c0,12.156,4.502,23.272,11.912,31.797c-13.303-4.449-22.921-17.016-22.921-31.797
	C169.753,199.485,179.371,186.917,192.674,182.469z"/>
<path d="M224.577,75.615c1.304,0.904,2.794,1.337,4.268,1.337c2.379,0,4.719-1.128,6.176-3.232l7.521-10.852
	c3.119,1.125,6.401,1.719,9.735,1.719c1.738,0,3.492-0.157,5.238-0.473c7.628-1.383,14.261-5.653,18.677-12.025
	c8.088-11.671,3.913-40.199,2.994-45.799c-0.329-2.007-1.46-3.795-3.131-4.954c-1.672-1.158-3.744-1.589-5.738-1.193
	c-5.566,1.105-33.745,7.211-41.833,18.882c-7.637,11.02-6.565,25.522,1.717,35.298l-7.518,10.847
	C220.322,68.578,221.171,73.253,224.577,75.615z M240.823,27.577c2.428-3.503,13.462-7.92,24.586-10.879
	c1.136,11.457,0.873,23.338-1.554,26.841l0,0c-2.132,3.076-5.334,5.138-9.016,5.806c-1.617,0.293-3.239,0.286-4.813,0.023
	c-0.103-2.259-1.213-4.445-3.216-5.832c-1.999-1.386-4.432-1.658-6.581-0.966C237.604,38.02,237.638,32.174,240.823,27.577z"/>
<path d="M355.863,167.06l20.105,23.203c3.004,3.467,7.179,5.556,11.754,5.884c0.418,0.03,0.836,0.045,1.252,0.045
	c4.126,0,8.07-1.466,11.22-4.195l5.051-4.375c0,0,0,0,0-0.001c7.157-6.202,7.935-17.07,1.732-24.227l-20.105-23.203
	c-3.004-3.467-7.179-5.556-11.754-5.884c-4.566-0.329-9.005,1.146-12.472,4.15l-5.051,4.376
	C350.439,149.035,349.661,159.904,355.863,167.06z M367.426,154.179l5.052-4.377c0.488-0.423,1.012-0.528,1.407-0.528
	c0.057,0,0.111,0.002,0.162,0.006c0.407,0.029,0.996,0.181,1.48,0.741l20.105,23.203c0.781,0.902,0.684,2.271-0.218,3.052
	l-5.052,4.376c-0.559,0.484-1.165,0.546-1.569,0.522c-0.407-0.029-0.996-0.181-1.48-0.741l-20.105-23.203
	C366.427,156.329,366.524,154.96,367.426,154.179z"/>
<path d="M219.939,131.909c1.078,0.539,2.223,0.794,3.351,0.794c2.753,0,5.404-1.521,6.719-4.15l6.005-12.009
	c1.854-3.708,0.351-8.216-3.357-10.07c-3.708-1.855-8.216-0.35-10.07,3.357l-6.005,12.009
	C214.729,125.547,216.231,130.055,219.939,131.909z"/>
<path d="M167.951,271.167c-3.397,2.377-4.222,7.058-1.844,10.453l7.006,10.008c1.46,2.086,3.789,3.203,6.155,3.203
	c1.486,0,2.988-0.44,4.297-1.357c3.397-2.377,4.222-7.058,1.844-10.453l-7.006-10.008
	C176.027,269.614,171.345,268.79,167.951,271.167z"/>
<path d="M68.173,159.723c1.921,0,3.842-0.733,5.307-2.199l8.006-8.006c2.931-2.931,2.931-7.684,0-10.614
	c-2.931-2.931-7.684-2.931-10.614,0l-8.006,8.006c-2.931,2.931-2.931,7.684,0,10.614C64.331,158.99,66.252,159.723,68.173,159.723z"
	/>
<path d="M78.387,262.135c-3.963-1.219-8.161,1.005-9.381,4.967l-4.003,13.01c-1.219,3.962,1.005,8.162,4.967,9.381
	c0.736,0.226,1.479,0.333,2.21,0.333c3.209,0,6.179-2.074,7.172-5.3l4.003-13.01C84.573,267.555,82.349,263.354,78.387,262.135z"/>
<path d="M431.315,214.581c-2.59-3.238-7.314-3.763-10.55-1.172c-3.237,2.589-3.762,7.313-1.172,10.55l12.009,15.012
	c1.482,1.853,3.664,2.817,5.866,2.817c1.644,0,3.301-0.538,4.685-1.645c3.237-2.589,3.762-7.313,1.172-10.55L431.315,214.581z"/>
<path d="M349.824,38.461c0.529,0.114,1.059,0.168,1.58,0.168c3.463,0,6.576-2.412,7.332-5.935l3.002-14.011
	c0.868-4.053-1.713-8.043-5.768-8.912c-4.043-0.869-8.042,1.712-8.912,5.767l-3.002,14.011
	C343.189,33.602,345.77,37.592,349.824,38.461z"/>
<g>
</g>
<g>
</g>
<g>
</g>
<g>
</g>
<g>
</g>
<g>
</g>
<g>
</g>
<g>
</g>
<g>
</g>
<g>
</g>
<g>
</g>
<g>
</g>
<g>
</g>
<g>
</g>
<g>
</g>
</svg>
