<svg height="512" viewBox="0 0 60 54" width="512" xmlns="http://www.w3.org/2000/svg"><g id="Page-1" fill="none" fill-rule="evenodd"><g id="060---Eye" fill-rule="nonzero" transform="translate(-1)"><path id="Shape" d="m58.316 31.419c2.2448665-2.5183502 2.2448665-6.3196498 0-8.838-5.162-5.89-15.458-15.581-27.316-15.581s-22.154 9.691-27.316 15.581c-2.24486654 2.5183502-2.24486654 6.3196498 0 8.838 5.162 5.89 15.458 15.581 27.316 15.581s22.154-9.691 27.316-15.581z" fill="#ecf0f1"/><circle id="Oval" cx="31" cy="27" fill="#2980ba" r="15"/><path id="Shape" d="m31 48c-12.277 0-22.855-9.976-28.068-15.922-2.57890016-2.8941907-2.57890016-7.2618093 0-10.156 5.213-5.946 15.791-15.922 28.068-15.922s22.855 9.976 28.068 15.922c2.5789002 2.8941907 2.5789002 7.2618093 0 10.156-5.213 5.946-15.791 15.922-28.068 15.922zm0-40c-11.489 0-21.575 9.549-26.564 15.24-1.9099275 2.1428545-1.9099275 5.3771455 0 7.52 4.989 5.691 15.075 15.24 26.564 15.24s21.575-9.549 26.564-15.24c1.9099275-2.1428545 1.9099275-5.3771455 0-7.52-4.989-5.691-15.075-15.24-26.564-15.24z" fill="#f9c795"/><path id="Shape" d="m20 28c-.5522847 0-1-.4477153-1-1-.0006319-1.1059422.1514716-2.2066734.452-3.271.0872391-.3546602.3608926-.6335496.7138359-.727494s.7290298.012001.9810366.2763627c.2520067.2643617.3398442.6450848.2291275.9931313-.2496926.8881603-.3762083 1.8064085-.376 2.729 0 .2652165-.1053568.5195704-.2928932.7071068s-.4418903.2928932-.7071068.2928932z" fill="#fff"/><path id="Shape" d="m23 20.45c-.3990042-.0002399-.7596799-.2376503-.9176681-.6040438-.1579882-.3663934-.0830489-.7916401.1906681-1.0819562 2.259256-2.4133005 5.4212344-3.7770781 8.727-3.764.5522847 0 1 .4477153 1 1s-.4477153 1-1 1c-2.7549131-.0103854-5.389894 1.1261381-7.273 3.137-.1889715.19988-.4519323.3130942-.727.313z" fill="#fff"/><circle id="Oval" cx="31" cy="27" fill="#2c2f38" r="4"/><g fill="#f0785a"><path id="Shape" d="m8 14c-.26519481-.0000566-.51950727-.1054506-.707-.293l-2-2c-.37897221-.3923789-.37355237-1.0160848.01218142-1.4018186.3857338-.38573377 1.00943969-.39115361 1.40181858-.0121814l2 2c.28590792.2859943.37142191.7160366.21667798 1.0896546-.15474393.3736179-.51928208.6172591-.92367798.6173454z"/><path id="Shape" d="m18 7c-.3808256.00207881-.7297741-.21233064-.9-.553l-1-2c-.1596977-.3197527-.1366785-.70041412.0603866-.99859276s.5382372-.46857408.895-.44700001c.3567629.02157408.6749157.23184005.8346134.55159277l1 2c.1545455.30926678.1383796.6764236-.0427493.97091061-.1811288.29448701-.5015228.47452363-.8472507.47608939z"/><path id="Shape" d="m54 14c-.4043959-.0000863-.7689341-.2437275-.923678-.6173454-.1547439-.373618-.0692299-.8036603.216678-1.0896546l2-2c.3923789-.37897221 1.0160848-.37355237 1.4018186.0121814.3857338.3857338.3911536 1.0094397.0121814 1.4018186l-2 2c-.1874927.1875494-.4418052.2929434-.707.293z"/><path id="Shape" d="m44 7c-.3464401-.00018496-.6681037-.17966784-.8501945-.47439433-.1820909-.29472648-.1986643-.66270321-.0438055-.97260567l1-2c.2468713-.49429485.8477051-.69487128 1.342-.448s.6948713.84770515.448 1.342l-1 2c-.1695854.33937432-.5166139.55355599-.896.553z"/><path id="Shape" d="m31 4c-.5522847 0-1-.44771525-1-1v-2c0-.55228475.4477153-1 1-1s1 .44771525 1 1v2c0 .55228475-.4477153 1-1 1z"/><path id="Shape" d="m6 44c-.4043959-.0000863-.76893405-.2437275-.92367798-.6173454-.15474393-.373618-.06922994-.8036603.21667798-1.0896546l2-2c.39237889-.3789722 1.01608478-.3735524 1.40181858.0121814.38573379.3857338.39115363 1.0094397.01218142 1.4018186l-2 2c-.18749273.1875494-.44180519.2929434-.707.293z"/><path id="Shape" d="m17 51c-.3464401-.000185-.6681037-.1796678-.8501945-.4743943-.1820909-.2947265-.1986643-.6627032-.0438055-.9726057l1-2c.2468713-.4942949.8477051-.6948713 1.342-.448s.6948713.8477051.448 1.342l-1 2c-.1695854.3393743-.5166139.553556-.896.553z"/><path id="Shape" d="m56 44c-.2651948-.0000566-.5195073-.1054506-.707-.293l-2-2c-.3789722-.3923789-.3735524-1.0160848.0121814-1.4018186s1.0094397-.3911536 1.4018186-.0121814l2 2c.2859079.2859943.3714219.7160366.216678 1.0896546-.1547439.3736179-.5192821.6172591-.923678.6173454z"/><path id="Shape" d="m45 51c-.3808256.0020788-.7297741-.2123306-.9-.553l-1-2c-.2468713-.4942949-.0462949-1.0951287.448-1.342s1.0951287-.0462949 1.342.448l1 2c.1545455.3092668.1383796.6764236-.0427493.9709106-.1811288.294487-.5015228.4745236-.8472507.4760894z"/><path id="Shape" d="m31 54c-.5522847 0-1-.4477153-1-1v-2c0-.5522847.4477153-1 1-1s1 .4477153 1 1v2c0 .5522847-.4477153 1-1 1z"/></g></g></g></svg>