<svg height="384pt" viewBox="0 0 384.02229 384" width="384pt" xmlns="http://www.w3.org/2000/svg"><path d="m231.207031 16.019531-39.359375 95.679688 24 176 152.160156 25.121093-16.160156 54.796876-128-24.078126-7.917968 24.160157-56.082032.320312v-24.640625l-33.039062-175.28125-110.960938 23.601563.160156-62.878907 112.082032-24 39.757812-88.800781" fill="#ff7043"/><g fill="#012e52"><path d="m.359375 132.179688c1.609375 7.503906 8.242187 12.648437 15.625 12.648437 1.113281 0 2.238281-.121094 3.375-.363281l62.632813-13.414063c.160156-.03125.3125-.0625.472656-.105469l48.960937-10.480468c4.988281-1.0625 9.175781-4.445313 11.261719-9.109375l39.761719-88.800781c3.605469-8.0625 0-17.527344-8.066407-21.144532-8.046874-3.609375-17.527343 0-21.144531 8.066406l-36.429687 81.390626-33.066406 7.078124-56.894532-52.414062c-6.511718-5.992188-16.640625-5.578125-22.609375.925781-5.992187 6.503907-5.566406 16.625.921875 22.609375l40.253906 37.089844-32.765624 7.023438c-8.640626 1.855468-14.144532 10.359374-12.289063 19zm0 0"/><path d="m19.34375 207.347656 94.777344-20.183594 10.773437 57.175782-41.453125 11.902344c-5.058594 1.457031-9.074218 5.296874-10.753906 10.273437l-16.078125 47.757813c-2.824219 8.378906 1.6875 17.449218 10.0625 20.273437 1.6875.566406 3.417969.839844 5.105469.839844 6.679687 0 12.910156-4.214844 15.167968-10.894531l13.398438-39.800782 30.511719-8.769531 12.992187 68.953125v23.144531c0 8.832031 7.167969 16 16 16 8.832032 0 16-7.167969 16-16v-24.640625c0-1-.09375-1.992187-.28125-2.96875l-33.03125-175.269531c-.800781-4.234375-3.269531-7.976563-6.855468-10.363281-3.582032-2.382813-7.953126-3.230469-12.199219-2.335938l-110.808594 23.601563c-8.640625 1.839843-14.160156 10.335937-12.3125 18.984375 1.832031 8.648437 10.304687 14.144531 18.984375 12.320312zm0 0"/><path d="m210.945312 382.898438c1.65625.542968 3.335938.800781 4.984376.800781 6.734374 0 12.992187-4.28125 15.199218-11.015625l3.542969-10.824219 114.207031 21.488281c8.730469 1.679688 17.058594-4.082031 18.6875-12.769531 1.632813-8.6875-4.085937-17.046875-12.765625-18.679687l-128-24.078126c-7.96875-1.480468-15.664062 3.109376-18.167969 10.734376l-7.921874 24.160156c-2.734376 8.390625 1.832031 17.433594 10.234374 20.183594zm0 0"/><path d="m332.742188 265.570312c5.410156-6.992187 4.128906-17.039062-2.863282-22.449218-6.976562-5.40625-17.03125-4.117188-22.445312 2.859375l-25.042969 32.359375-51.039063-10.800782-23.03125-150.296874 14.824219-37.40625 46.617188 24.863281c2.398437 1.28125 4.972656 1.886719 7.511719 1.886719 5.71875 0 11.253906-3.070313 14.132812-8.480469 4.160156-7.796875 1.210938-17.488281-6.582031-21.648438l-49.816407-26.566406 11.089844-27.992187c3.238282-8.214844-.785156-17.511719-9-20.757813-8.226562-3.257813-17.503906.78125-20.769531 9l-39.351563 99.34375c-1.046874 2.636719-1.367187 5.511719-.9375 8.316406l25.359376 165.523438c1.007812 6.582031 5.984374 11.847656 12.496093 13.230469l150.808594 31.921874c1.121094.238282 2.234375.351563 3.328125.351563 7.402344 0 14.046875-5.167969 15.640625-12.699219 1.832031-8.644531-3.703125-17.132812-12.34375-18.957031l-54.152344-11.464844zm0 0"/></g></svg>